<svg viewBox="0 0 135.56 164.49" xmlns="http://www.w3.org/2000/svg"><g fill="#231815"><path d="m21.59 105.22c-8.93 5.34-14.29 12.14-14.29 19.56 0 17.12 28.54 31 63.74 31s63.47-13.75 63.74-30.77c.52 1.71.79 3.46.79 5.24 0 18.9-30.35 34.22-67.78 34.22s-67.79-15.31-67.79-34.21c0-9.89 8.31-18.79 21.59-25.04z"/><path d="m33.99 69.06c0 9.14 18.67 16.55 41.69 16.55 19.74 0 36.26-5.45 40.58-12.76.09.47.13.93.13 1.41 0 10.16-20.65 18.39-46.12 18.39-19.17 0-35.61-4.67-42.57-11.31.84 4.84 2.42 10.52 2.42 16.56v3.9c0 17.68 12.91 32.14 28.68 32.14h23.16c10.95 0 20.51-6.97 25.34-17.14-3.14 15.49-14.73 27.07-28.44 27.07h-23.65c-16.11 0-29.29-15.97-29.29-35.5v-4.31c0-12.15-5.34-22.92-1.75-29.32-.01-.16-.03-.33-.03-.49 0-5.61 6.3-10.63 16.23-14.01-4.05 2.55-6.4 5.57-6.4 8.81z"/><path d="m71.93 40.78v.02c-5.48 6.12-7.39 12-7.9 16.7-.5 4.85.46 8.73 1.5 11.5 1.04 2.76 2.15 4.28 2.15 4.28.5.69.99 1.37 1.47 2.06-.03-.02-5-2.43-9.38-8.72-1.15-1.81-5.77-8.77-5.46-16.08.24-3.94 1.76-9 6.61-15.62 5.33-7.12 6.87-12.92 7.47-18.93.82-6.51-3.02-16.02-3.07-15.99.19-.06 6.04 4.76 9.07 9.48 2.98 4.61 5.28 11.12 4.2 17.93-.69 4.48-2.81 8.95-6.65 13.38z"/><path d="m82.66 52.95c-5.5 4.99-7 10.62-7.61 14-.6 3.39-.86 8.24-.86 8.24-3.85-5.74-6.48-21.67 2.39-30.64 8.87-8.96 8.57-19.47 8.39-19.64.08-.07 5.89 9.23 4.26 17.26-.73 3.79-2.78 7.45-6.57 10.77z"/><path d="m116.95 108.11c-2.7 0-3-5.13-3-6.61 0-5.24 1.76-7.24 2.8-8.43.26-.28 8.28-9.29 8.28-19.77 0-5.01-1.73-9.12-5.6-9.12-1.82 0-3.06.74-7.36 3.42-.16.11-.78.57-.91.57-.07 0-.2-.11-.2-.34 0-.4 1.11-1.82 1.43-2.28 1.53-1.94 4.37-5.18 9.02-5.18 3.55 0 8.93 2.39 8.93 14.98 0 17.83-9.38 32.76-13.39 32.76z"/></g></svg>