<svg enable-background="new 0 0 400 323" viewBox="0 0 400 323" xmlns="http://www.w3.org/2000/svg"><g fill="#260000"><path d="m151.3 124.7c-9.2 5.5-14.7 12.5-14.7 20.1 0 17.6 29.3 31.8 65.4 31.8 36 0 65.2-14.1 65.4-31.6.5 1.8.8 3.6.8 5.4 0 19.4-31.1 35.1-69.6 35.1s-69.6-15.7-69.6-35.1c.1-10.1 8.6-19.3 22.3-25.7z"/><path d="m164 87.6c0 9.4 19.2 17 42.8 17 20.3 0 37.2-5.6 41.7-13.1.1.5.1 1 .1 1.4 0 10.4-21.2 18.9-47.3 18.9-19.7 0-36.5-4.8-43.7-11.6.9 5 2.5 10.8 2.5 17v4c0 18.1 13.2 33 29.4 33h23.8c11.2 0 21.1-7.2 26-17.6-3.2 15.9-15.1 27.8-29.2 27.8h-24.3c-16.5 0-30.1-16.4-30.1-36.4v-4.4c0-12.5-5.5-23.5-1.8-30.1 0-.2 0-.3 0-.5 0-5.8 6.5-10.9 16.7-14.4-4.2 2.6-6.6 5.7-6.6 9z"/><path d="m203 58.6c-5.6 6.3-7.6 12.3-8.1 17.2-.5 5 .5 9 1.5 11.8 1.1 2.8 2.2 4.4 2.2 4.4.5.7 1 1.4 1.5 2.1 0 0-5.1-2.5-9.6-8.9-1.2-1.9-5.9-9-5.6-16.5.2-4 1.8-9.2 6.8-16 5.5-7.3 7-13.3 7.7-19.4.8-6.7-3.1-16.4-3.2-16.4.2-.1 6.2 4.9 9.3 9.7 3.1 4.7 5.4 11.4 4.3 18.4-.7 4.5-2.9 9-6.8 13.6z"/><path d="m214 71.1c-5.6 5.1-7.2 10.9-7.8 14.4s-.9 8.5-.9 8.5c-4-5.9-6.7-22.2 2.4-31.4s8.8-20 8.6-20.2c.1-.1 6 9.5 4.4 17.7-.7 3.8-2.8 7.6-6.7 11z"/><path d="m249.2 127.7c-2.8 0-3.1-5.3-3.1-6.8 0-5.4 1.8-7.4 2.9-8.7.3-.3 8.5-9.5 8.5-20.3 0-5.1-1.8-9.4-5.8-9.4-1.9 0-3.1.8-7.6 3.5-.2.1-.8.6-.9.6s-.2-.1-.2-.4c0-.4 1.1-1.9 1.5-2.3 1.6-2 4.5-5.3 9.3-5.3 3.6 0 9.2 2.5 9.2 15.4-.1 18.4-9.7 33.7-13.8 33.7z"/><g clip-rule="evenodd" fill-rule="evenodd"><path d="m65.9 288.4c-.7.1-1.6 0-2.5 0-1 0-2.1.1-2.7 0-.8-.1-2.3-.4-2.7.1-.5.6-.4 1.9 0 2.1.7.3 1.8 0 2.7.3s1 1 1.2 1.7c.1.3-.1.9-.3 1.6-.2.5-.4 1.1-.6 1.9-.1.5-.6 1.4-.7 1.8-.1.8-.6 1.5-.7 1.9-.1.9-.3 1.2-.7 1.8-.6.9-.3 1.2-.8 2-.1.2-.2.6-.4 1.2s-.3.9-.6 1.4c-.2.4-.5.8-.9.8-.6.1-.8-.3-.9-.9s-.4-1.1-.5-1.4c-.2-.6-.2-.8-.5-1.2-.4-.6-.5-1.3-.8-2.1-.2-.6-.5-1.5-.7-2-.3-.6-.4-1.3-.8-2.1-.3-.8-.6-1.2-.8-2.1-.2-.8-.3-1.2-.8-2.2-.1-.2.1-.3-.3-1.4-.2-.7.6-.8 1.2-1 .5-.1 1.7.1 2-.2.3-.5.6-1.3 0-2.1-.5-.6-1.7-.1-2.9-.1-.7 0-1.7-.1-2.8 0-.8 0-2.2.1-2.9 0-1-.1-2.1-.6-2.9.1-.4.3-.4 1.6 0 2.1.3.3 1.4.3 1.8.3.5.1.9.3 1.2.7.2.3.8.7.8 1.1.2.6.6.9.6 1.6 0 .6.1 1 .5 1.3.4.4.3.9.5 1.3.2.6.5.9.5 1.3-.1.5.3.8.5 1.3s.3.8.5 1.4c.1.5.3.8.6 1.3.1.2.5.8.5 1.3 0 .3.4 1 .6 1.3.3.5.3.8.5 1.3.3.5.6.8.6 1.3.1.6.2.8.6 1.3.5.6.3 1 .6 1.3s.5.9.5 1.6c.1.8.1 1 .3 1.8.2.7.4 1.2.6 1.4.5.5.6.9 1.4.6.5-.2 1-.2 1.3-.7.2-.3.4-1.2.5-1.4.1-.5.2-1.1.2-1.7s.2-1.3.2-1.6c.1-.6.4-.7.5-1.3.1-.3.2-.9.5-1.3.2-.2 0-.7.5-1.3.2-.3.3-.6.5-1.3.1-.5.3-1 .5-1.3.3-.6.4-.6.5-1.3.1-.5.2-1.1.5-1.3.4-.3.3-.8.5-1.3.1-.3.5-.9.5-1.4 0-.3.1-1.1.5-1.3.3-.2.1-.9.5-1.3.2-.3.3-.8.5-1.3.3-.5.1-1.1.7-1.6.3-.2.2-.7.8-1.1.5-.3.9-.5 1.2-.7.5-.3 1.4.5 1.7-.3s.7-1.4 0-2.1c-.3-.4-1.2 0-2.2.1z"/><path d="m77.8 300.1c.7.1 1.8.1 2.5 0 .6-.1 1.8 0 2.3 0 .6 0 1.4-.1 2.4 0 .6.1 1.5.1 2.4 0 1-.1 1.3-.1 2.4 0 .5 0 1.8-.1 2.4 0 .5 0 1.8.3 2.4-.1.7-.5-.3-1.5-.4-2.4-.1-.8-.4-1.7-.6-2.2-.2-.8-.7-1.4-.9-2.1-.3-.8-.6-1.2-1.3-2-.8-.7-1-1.2-1.6-1.6-.9-.5-1.2-.9-1.9-1.2-.9-.3-1.5-.7-2.1-.8l-2.3-.3c-1-.1-1.7.2-2.7.3-.5.1-.9.3-1.3.5-.3.1-.5.6-1.2.6-.6 0-.9.3-1.1.7-.1.3-.6.3-1 .8-.3.4-.6.7-1 1-.5.3-.8.6-.9 1-.1.6-.6.9-.8 1.1-.3.5-.5.9-.7 1.2-.5 1-.8 1.6-1.1 2.4-.3.9-.7 1.9-.6 2.6.1 1.1-.3 1.6-.2 2.6.1.8.1 1.8.2 2.6.2.9.3 1.8.6 2.4.5.9.9 1.4 1.1 2.2.1 1 .8 1.2 1.4 1.9.5.5 1.3 1.3 1.8 1.6.9.5 1.2.8 2.1 1.2.5.2 1.7.7 2.4.8.9.1 1.8.2 2.7.2.6 0 1.4-.2 1.7-.1.6.1.9-.4 1.7-.3.5 0 1.1-.3 1.6-.5.6-.2.9-.3 1.5-.8.3-.2 1-.6 1.4-.9.5-.5 1-.6 1.3-1.1s.8-.6 1.2-1.3c.2-.3 1.2-.9 1.1-1.4-.1-.6-.7-1-1.3-1-.8.1-.8.7-1 .9-.5.3-.6.5-1 .8-.6.8-1.3.9-2 1.3-.6.5-1.7.9-2.3.9-.8 0-1.6.3-2.4.3-1-.1-1.4.1-2.3-.2l-1.9-.7c-.6-.2-1-.8-1.5-1.2-.6-.5-.9-.8-1.2-1.4s-.6-.9-.9-1.8c-.2-.6-.2-1.3-.6-2-.3-.5-.2-1.4-.4-2.3-.2-.7.3-1 .6-1.4.4-.5.8-.8 1.3-.8zm-.9-5.4c.1-.4.1-.6.6-1.2.3-.4.3-.8.6-1.2.3-.5.5-.6.9-1.1.3-.4.6-.7 1.2-.8.4-.1.9-.6 1.3-.5.7.1 1 .1 1.6-.2.3-.2 1.2.1 1.6.2.5.1.9.2 1.3.5.5.3.7.5 1 .8s.7.5.8 1c.1.4.4.9.5 1.3.2.6.3.9.5 1.3.2.6-.2 1.5-.8 1.8-.7.5-1.3 1-2 .9-.9-.2-2.4-.1-3.4 0-1.3.1-2.4.2-3.2 0s-1.4-.5-2-1-.7-.9-.5-1.8z"/><path d="m115.5 287.3c-.6-.1-1.5.1-2.4.5-.5.2-1.2.7-2.1 1.3-.5.3-.7.3-1 .9-.1.2-.6.8-.9 1-.5.3-.6.9-.9 1.1s-.4.8-.7 1.1c-.1.1-.2.1-.3.1-.2 0-.4-.2-.4-1.2v-1.7c0-.6.2-1.3-.1-1.8-.1-.3.5-1 0-1.5-.3-.3-1.7.5-2 .6l-2.1.6-2.1.7c-1 .5-1.8.1-2.1.7s-.3 1.2 0 1.6c.3.5 1.4.2 2 .5.5.2.9.6 1.2.6.5.2.4.8.5 1.2.2.6.3 1 .1 1.9-.1 1 .1 2.3 0 3.2-.1 1.1 0 2.4 0 3.2 0 1.1.1 2.4 0 3.2-.1 1 .1 2.1 0 3.2-.1.9 0 1.3-.1 1.8-.1.6-.5.6-.6 1.1-.1.6-.6.3-1.3.6-.7.2-1.4-.5-2.3.2-.5.5-.3 1.8 0 2.1s1.2.3 1.8.1c.5-.2 1.2.1 1.8.1.5-.1 1.3-.2 1.8 0 .3.1 1.1 0 1.7 0 .7 0 1 .2 1.8.2.6 0 1.4.1 1.8.2.6.2.9-.1 1.8 0 .5.1 1.2.2 1.9-.2.5-.2.7-.7.6-1.2-.1-.4-.2-1-.6-1.2-.5-.3-1.2-.2-2-.2-.6 0-1.1.2-2-.1-.7-.2-.7-.1-1.2-.4-.3-.2-.5-.8-.6-1.1-.2-.5 0-1.1-.1-2s-.3-1.8 0-2.9c.1-1.1-.1-3.1-.1-4.2.1-2.3-.1-3.8.2-4.4.3-.7.4-1 .9-1.7.4-.5 1-1 1.3-1.6.2-.4 1.1-1.1 1.5-1.2.7-.2 1.3-.3 1.8-.5.6-.1 1.1.4 1.9.6.6.2 1.3.6 1.7.6.5 0 1.7-.4 2-.9s.8-1.4.8-2c.1-.8-.6-1.4-1-2.1 0-.7-.9-.5-1.9-.7z"/><path d="m168.7 279.1c-.3-.6-.8-1.4-.8-2.4-.1-.8 0-2-.8-2.4-.5-.3-1.4-.1-1.9 0-.8.1-1.2-.1-1.9-.1-.8 0-1.3.1-1.8 0-.6-.1-1.2 0-1.9 0h-1.9c-.6 0-1.5-.2-1.9 0-.8.3-1 0-1.9 0s-1.2.2-2 .1c-.6-.1-1.1-.1-1.8-.1s-1.4-.1-1.9 0c-.8.3-1.3.2-1.9 0s-1.5.2-1.9 0c-.5-.2-1.1-.1-1.9 0-.5.1-1.4 0-1.9 0-.4-.1-1.3 0-1.9.1-.7.1-1.6-.2-1.9 0-.6.3-.5 1.6-.8 2.4-.2.8-.6 1.4-.8 2.5-.1.7-.6 1.7-.8 2.5-.1.8-.7 1.8-.7 2.5 0 .6 1.4 1 1.9.8.5-.3.8-.9 1.1-1.6s1-1.2 1.2-1.5c.4-.7.6-.8 1.2-1.4.3-.3.6-.8 1.3-1.3.2-.2.7-.7 1.3-1.1s.8-.5 1.6-.8c.9-.3 1.3-.4 1.7-.5.3-.1 1.3-.3 1.8-.2 1 .2 1.4.3 2 .5.3.1.5 1.3.3 1.9-.1.5-.1 1 0 1.7v1.7c0 .6-.2 1 0 1.8.2.6 0 1 0 1.7s.2 1.3 0 1.8c-.1.7-.2 1.1 0 1.7.2.9 0 1.4 0 1.8.1.8 0 1.2 0 1.7v1.8c0 .8.2 1 0 1.7-.2.6.1 1 0 1.8-.2.7-.2 1.2 0 1.7s-.1 1.3 0 1.7c.2.5 0 1.1 0 1.8 0 .6-.1 1.3 0 1.7.2.8 0 .9 0 1.7s.1 1.8-.1 2.1c-.3.7-.2 1-.5 1.4-.4.5-.6.6-1.3.9-.6.3-1.2.3-2 .2-.8.1-1.2-.3-1.8.2-.7.6-.9 2.6.2 2.8.9.2 1.3-.2 1.9-.2s1.4.2 2.1 0c.6-.2 1.5-.1 2.1-.2.4-.1 1.3.1 2-.1.6-.2 1.3.1 2.1.1.6 0 1.4 0 2.1.2.4.2 1.3.1 2.1 0s1.1 0 2 .1.9-2.1.2-2.7c-.8-.5-1-.1-1.6-.1-.9.2-1.4-.3-2.2-.3s-1-.6-1.2-.9c-.3-.5-.6-.6-.6-1.4 0-.5-.2-1.3-.1-2.1.1-.6.1-1.3 0-1.7-.1-.3-.1-1.2 0-1.7v-5.3c0-.9.1-1.1 0-1.8s.1-1 0-1.7c0-.6.1-1.3 0-1.8-.1-.8 0-1 0-1.7v-1.8c.1-.5 0-1.1 0-1.7s.1-1.3 0-1.8c-.1-.7 0-1.1 0-1.7 0-.5-.2-1.2 0-1.8v-1.7c.1-.3 0-.9 0-1.7-.1-1-.1-1.5.4-2 .3-.2 1-.6 2.1-.5l1.9.2c.8.2 1.2.1 1.6.5.4.3 1.3.6 1.5.9s.9.6 1.4 1 1 1 1.3 1.3c.5.5.8.8 1.2 1.4l1.1 1.4c.3.5.6 1.6 1.1 1.6.9 0 2-.4 2-.9-.1-.9-.6-1.7-.8-2.5 0-.3-.2-1.2-.6-2.2z"/><path d="m196.6 311.9c-.3-.1-.9-.5-1.1-.6-.8-.6-.5-1.6-.5-2.8.1-.8 0-1.9 0-2.9s.1-1.7 0-3c-.1-.8.1-2.1 0-3s0-1.9 0-2.9c0-.7-.1-1.4-.1-2.5 0-1-.2-1.4-.6-2.5-.2-.5-.8-.9-1.1-1.6-.2-.6-.8-.8-1.4-1.3-.3-.3-1-.7-1.8-.9-.4-.1-1.5-.2-2-.3-1-.2-2 0-2.7.5-.4.3-1 .1-1.4.7-.3.5-1.2.8-1.7 1.1-.7.5-1.5.3-1.7-.6-.1-.4-.8-.9-.8-1.6 0-.8.1-1.3 0-1.8-.1-.6.1-1.3 0-2.4-.2-.7 0-1.3 0-2.3-.1-.6.2-1.6 0-2.3-.2-.8.1-1.7-.1-2.3s.6-1.9 0-2.3c-.6-.5-1.2.3-2 .6-1 .5-1.4.4-2.1.8-.7.3-1.3.4-2 .8-.5.2-.9.2-1.2.3-.5.2-.9.2-.9 1.2.1.8 1.3.7 2 .9.3.1.8.5 1 .8.3.5.5.8.5 1.2.1.5.2 1 .1 1.9.1 1.2.1 1.9.2 3.1.1 1.1.1 2.5 0 3.3-.1 1.2 0 2.4 0 3.2-.1 1 .1 2.2 0 3.3-.1 1 0 2.4 0 3.3v3.3c0 .9.1 2.1 0 3.2-.1 1.3 0 2.5 0 3.2-.1 1 0 1.6-.1 1.8-.1.6-.2.7-.5 1.1s-.7.5-1.2.5-1.3-.4-2 .2c-.4.3-.5 1.6 0 2.1.6.6 2.3.2 3 .1 1-.2 2.2 0 2.9 0 1.1 0 1.6.1 2.8 0 .8 0 2.1.8 3-.1.6-.6.4-1.7 0-2.1-.6-.5-1.3-.2-1.9-.2-.5 0-.9-.1-1-.6s-.5-1.5-.5-2.8c-.1-.6-.1-1.3 0-1.7.1-.8.1-.9 0-1.7 0-.6-.2-1.4 0-1.7.2-.5.1-1.4 0-1.8s.2-1 0-1.7c-.1-.5 0-1.2 0-1.7 0-1.1-.1-2.3.5-3.4.3-.7.1-.9 2.5-2.6.7-.5 1.1-.8 1.7-.9.5-.2 1.2-.2 2-.3s1.7.3 2.1.5 1 .8 1.2 1.3c.3.8.6 1.2.6 1.8 0 .8.1 1.6.2 2.2.1 1 0 2.1 0 3 .1 1.2-.1 2.3 0 2.9.2 1 0 2.2 0 3 0 1.2.2 1.9 0 2.9-.2 1.3.2 2.3-.5 2.8-.3.2-.6.3-1.1.6-.7.3-1.4-.2-1.9.2-.7.6-.2 1.7 0 2.1.5.8 2 .1 2.8.1 1 .1 1.6-.1 2.8 0 1 .1 2-.1 2.8 0 .9.2 2.9.6 2.9-.1 0-.6.6-1.4 0-2.1-.3-.8-1.1-.3-1.7-.5z"/><path d="m209.8 300.1c.7.1 1.8.1 2.5 0 .6-.1 1.8 0 2.3 0 .6 0 1.4-.1 2.4 0 .6.1 1.5.1 2.4 0 1-.1 1.3-.1 2.4 0 .5 0 1.8-.1 2.4 0 .5 0 1.8.3 2.4-.1.7-.5-.3-1.5-.4-2.4-.1-.8-.4-1.7-.6-2.2-.2-.8-.7-1.4-.9-2.1-.3-.8-.6-1.2-1.3-2-.8-.7-1-1.2-1.6-1.6-.9-.5-1.2-.9-1.9-1.2-.9-.3-1.5-.7-2.1-.8l-2.3-.3c-1-.1-1.7.2-2.7.3-.5.1-.9.3-1.3.5-.3.1-.5.6-1.2.6-.6 0-.9.3-1.1.7-.1.3-.6.3-1 .8-.3.4-.6.7-1 1-.5.3-.8.6-.9 1-.1.6-.6.9-.8 1.1-.3.5-.5.9-.7 1.2-.5 1-.8 1.6-1.1 2.4-.3.9-.7 1.9-.6 2.6.1 1.1-.3 1.6-.2 2.6.1.8.1 1.8.2 2.6.2.9.3 1.8.6 2.4.5.9.9 1.4 1.1 2.2.1 1 .8 1.2 1.4 1.9.5.5 1.3 1.3 1.8 1.6.9.5 1.2.8 2.1 1.2.5.2 1.7.7 2.4.8.9.1 1.8.2 2.7.2.6 0 1.4-.2 1.7-.1.6.1.9-.4 1.7-.3.5 0 1.1-.3 1.6-.5.6-.2.9-.3 1.5-.8.3-.2 1-.6 1.4-.9.5-.5 1-.6 1.3-1.1s.8-.6 1.2-1.3c.2-.3 1.2-.9 1.1-1.4-.1-.6-.7-1-1.3-1-.8.1-.8.7-1 .9-.5.3-.6.5-1 .8-.6.8-1.3.9-2 1.3-.6.5-1.7.9-2.3.9-.8 0-1.6.3-2.4.3-1-.1-1.4.1-2.3-.2l-1.9-.7c-.6-.2-1-.8-1.5-1.2-.6-.5-.9-.8-1.2-1.4s-.6-.9-.9-1.8c-.2-.6-.2-1.3-.6-2-.3-.5-.2-1.4-.4-2.3-.2-.7.3-1 .6-1.4.4-.5.8-.8 1.3-.8zm-.9-5.4c.1-.4.1-.6.6-1.2.3-.4.3-.8.6-1.2.3-.5.5-.6.9-1.1.3-.4.6-.7 1.2-.8.4-.1.9-.6 1.3-.5.7.1 1 .1 1.6-.2.3-.2 1.2.1 1.6.2.5.1.9.2 1.3.5.5.3.7.5 1 .8s.7.5.8 1c.1.4.4.9.5 1.3.2.6.3.9.5 1.3.2.6-.2 1.5-.8 1.8-.7.5-1.3 1-2 .9-.9-.2-2.4-.1-3.4 0-1.3.1-2.4.2-3.2 0s-1.4-.5-2-1-.7-.9-.5-1.8z"/><path d="m275.8 302.7c-.8.3-.3 1-.9 1.7-.6.8-.6 1-1 1.5-.3.4-.8 1-1.2 1.3-.4.5-1.2 1-1.3 1.2-.6.6-1 .8-1.5.9-.6.3-1.2.6-1.6.8-.5.1-.9.2-1.7.5-.6.3-1.6 0-1.9.1-.5.2-1.3-.1-1.7-.1-.7 0-1-.2-1.5-.3-.7-.1-1-.2-1.4-.5-.3-.2-.6-.5-1.3-.7-.6-.2-.6-.5-1.2-.8-.3-.1-.4-.6-1-1-.3-.2-.5-.9-.9-1.1-.6-.3-.3-.5-.8-1.2-.3-.5-.2-.8-.7-1.3-.2-.2-.3-.6-.6-1.3-.1-.4-.4-.8-.5-1.4-.1-.8-.5-.8-.3-1.4 0-.8-.2-1-.3-1.6s-.2-1-.2-1.5c-.1-.9-.2-1.8-.2-3 0-.9.1-1.5.1-2.8 0-1 0-2.2.4-2.9.2-.3 0-.9.3-1.4.2-.3.3-.9.4-1.4.1-.4.3-.8.5-1.4.1-.3.6-1 .6-1.3 0-.4.6-1 .7-1.3.1-.2.3-.8.8-1.2s.5-.6.9-1c.5-.5.6-.6 1-.9s.6-.6 1.2-.8c.5-.1.6-.5 1.3-.6 1.2-.1 1.6-.5 2.9-.5.5 0 1.5 0 2 .2.9.3 1.5.3 2 .6.5.2 1 .6 1.8.9.7.2 1.1.6 1.7 1.2.5.4 1.2 1 1.4 1.3.5.6.9.9 1.3 1.5l1.3 1.7c.3.6.6 1.7 1.2 1.8.3.1 1.5 0 1.9-.8.3-.8-.5-1.7-.8-2.7-.2-.8-.6-1.9-.9-2.6-.3-.8-.6-1.7-.8-2.5-.2-.9.2-2.3-.9-2.5-.8-.2-1.3.4-2 .6-.6.3-1.6.6-2 .3-.5-.2-1-.2-2.2-.5-.9-.1-1.4-.5-2.4-.7-.8-.2-1.6-.1-2.5-.2s-1.3.1-2.1.2c-.7.1-1.3.1-2 .5-.7.2-1.2.3-1.8.7-.7.3-1 .5-1.7 1-.5.4-1.4.9-1.6 1.2-.4.6-.8.7-1.4 1.3s-.6 1.1-1.3 1.5c-.6.6-1 1.3-1.2 1.7-.4.8-.9 1.4-1 1.7-.2.6-.8 1.4-.9 1.9-.3.9-.3 1.2-.8 1.9-.5.6-.2 1.1-.6 2-.3.6-.6 1-.5 1.9.1.8-.2 1.2-.3 2-.1.7-.1 1.4-.2 1.9-.2.7-.1 1.2-.1 1.8 0 .9.1 1.4.1 1.8.1.8.1 1.2.2 1.8.1.5.2 1.1.3 1.7.1.3.5 1.3.5 1.7.1.5.5 1.2.6 1.6.2.5.6 1 .8 1.5.2.8.6 1 .9 1.4s.6.8 1 1.3c.5.6.9 1 1.2 1.3.4.5.8.8 1.2 1.1.3.3.8.4 1.4 1 .3.3.9.5 1.4.8.6.3 1.1.3 1.6.7.7.6 1.1.5 1.7.5.5 0 1 .3 1.8.3.6 0 1 .2 1.8.1 1-.1 1.6-.1 2.8-.3.6-.1.9-.1 1.3-.3.3-.2.9-.1 1.3-.5.4-.3 1-.3 1.3-.6.3-.2.8-.2 1.2-.7.3-.4.9-.5 1.2-.8.4-.4.8-.7 1.1-.9.6-.5 1.2-.8 1.6-1.6.2-.7 1.1-1.3 1.3-1.8.3-.6 1-1.3 1.2-1.9.3-.8 1.3-1.6 1-2.1-.2-.9-1.1-1.5-1.8-1.2z"/><path d="m340.6 273.6-1.7.2c-.8.1-.9.3-1.5.6-.8.2-.9.3-1.4.9-.3.3-.9.9-1.3 1.2-.5.3-.8 1.1-1 1.3-.3.3-.5 1-.9 1.4-.3.5-.5 1.3-.6 1.6-.2.3-.4.9-.5 1.5-.1.5-.1 1.3-.2 1.6-.2.7-.2 1-.2 1.6-.1.8-.1 1.1-.7 1.7-.7.8-.9.6-1.3.8-.9.3-1.6.2-2.4.3-.6.1-.9.3-1.1.5-.1-.4-.4-.6-.8-.7-1.2-.2-2.3-.1-3-.1-.9 0-1.9.2-2.4-.1-.6-.4-.2-1.4-.5-2.6-.1-.8.1-1.3 0-1.7-.1-.5.1-.9.1-1.7.1-.3-.1-1 .2-1.6l.3-1.4c.2-.9.6-1.3 1.3-1.3.6 0 1.2.4 1.8 1 .7.5 1 1.2 2 .9.5-.1 1.7-.4 2-.9.4-.6.9-1.4.9-2 .1-.8-.6-1.5-1.2-2.2s-1.4-.8-2.4-.8l-1.7.2c-.8.1-.9.3-1.5.6-.8.2-.9.3-1.4.9-.3.3-.9.9-1.3 1.2-.5.3-.8 1.1-1 1.3-.3.3-.5 1-.9 1.4-.3.5-.5 1.3-.6 1.6-.2.3-.4.9-.5 1.5-.1.5-.1 1.3-.2 1.6-.2.7-.2 1-.2 1.6-.1.8-.1 1.1-.7 1.7-.7.8-.9.6-1.3.8-.9.3-1.6.2-2.4.3-1 .1-1.3.8-1.3 1.2 0 .6.5 1 1.2 1.4.4.2 1.4.3 2.2.5.6.1 1.2.5 1.4 1 .6.9.4 1.9.7 2.7.2.5-.1 1.5 0 2.2.1.9-.1 1.7 0 2.2.1.8 0 1.3 0 2.3.1.9 0 1.6 0 2.3 0 .8.1 1.3 0 2.2-.1.6-.2 1.5 0 2.3.3 1.1.1 1.3-.1 2-.2.6-.1.9-.6 1-.5.2-1 .4-1.3.5-.8.1-1.5-.4-2.2.1-.5.3-.5 1.8 0 2.1s1.3.1 1.8.1c.5-.1 1 .1 1.7 0 1-.1 2.5.1 3.4 0 1.2-.2 2.5-.1 3.4 0 .3.1 1.3.1 1.7 0 .3-.1 1.3.4 1.8-.1.6-.6.3-2-1-2.2-.9-.1-1.5-.1-2.1-.1-.7 0-.8-.2-1.3-.4-.3-.1-.5-.6-.6-1.1-.1-.3-.3-1-.1-2 .1-.5-.1-1.6 0-2.3v-6.7c-.1-.6.1-1.3 0-2.3-.1-.8.3-1.5 0-2.3-.1-.3-.1-.9.2-1.3.2-.2.2-.7.6-1.3s1.3-1.1 1.8-1.2c.6-.2.8-.1 1.6-.2.5-.1 1.3-.1 1.6-.2.3-.2.6-.5.7-.7.2.4.6.7 1.1.9.4.2 1.4.3 2.2.5.6.1 1.2.5 1.4 1 .6.9.4 1.9.7 2.7.2.5-.1 1.5 0 2.2.1.9-.1 1.7 0 2.2.1.8 0 1.3 0 2.3.1.9 0 1.6 0 2.3 0 .8.1 1.3 0 2.2-.1.6-.2 1.5 0 2.3.3 1.1.1 1.3-.1 2-.2.6-.1.9-.6 1-.5.2-1 .4-1.3.5-.8.1-1.5-.4-2.2.1-.5.3-.5 1.8 0 2.1s1.3.1 1.8.1c.5-.1 1 .1 1.7 0 1-.1 2.5.1 3.4 0 1.2-.2 2.5-.1 3.4 0 .3.1 1.3.1 1.7 0 .3-.1 1.3.4 1.8-.1.6-.6.3-2-1-2.2-.9-.1-1.5-.1-2.1-.1-.7 0-.8-.2-1.3-.4-.3-.1-.5-.6-.6-1.1-.1-.3-.3-1-.1-2 .1-.5-.1-1.6 0-2.3v-6.7c-.1-.6.1-1.3 0-2.3-.1-.8.3-1.5 0-2.3-.1-.3-.1-.9.2-1.3.2-.2.2-.7.6-1.3s1.3-1.1 1.8-1.2c.6-.2.8-.1 1.6-.2.5-.1 1.3-.1 1.6-.2 1.3-.7 1-2.4 0-2.5-1.2-.2-2.3-.1-3-.1-.9 0-1.8.2-2.4-.1-.6-.4-.2-1.4-.5-2.6-.1-.8.1-1.3 0-1.7-.1-.5.1-.9.1-1.7.1-.3-.1-1 .2-1.6l.3-1.4c.2-.9.6-1.3 1.3-1.3.6 0 1.2.4 1.8 1 .7.5 1 1.2 2 .9.5-.1 1.7-.4 2-.9.4-.6.9-1.4.9-2 .1-.8-.6-1.5-1.2-2.2-.4-.7-1.2-.8-2.2-.9z"/><path d="m351.3 300.1c.7.1 1.8.1 2.5 0 .6-.1 1.8 0 2.3 0 .6 0 1.4-.1 2.4 0 .6.1 1.5.1 2.4 0 1-.1 1.3-.1 2.4 0 .5 0 1.8-.1 2.4 0 .5 0 1.8.3 2.4-.1.7-.5-.3-1.5-.4-2.4-.1-.8-.4-1.7-.6-2.2-.2-.8-.7-1.4-.9-2.1-.3-.8-.6-1.2-1.3-2-.8-.7-1-1.2-1.6-1.6-.9-.5-1.2-.9-1.9-1.2-.9-.3-1.5-.7-2.1-.8l-2.3-.3c-1-.1-1.7.2-2.7.3-.5.1-.9.3-1.3.5-.3.1-.5.6-1.2.6-.6 0-.9.3-1.1.7-.1.3-.6.3-1 .8-.3.4-.6.7-1 1-.5.3-.8.6-.9 1-.1.6-.6.9-.8 1.1-.3.5-.5.9-.7 1.2-.5 1-.8 1.6-1.1 2.4-.3.9-.7 1.9-.6 2.6.1 1.1-.3 1.6-.2 2.6.1.8.1 1.8.2 2.6.2.9.3 1.8.6 2.4.5.9.9 1.4 1.1 2.2.1 1 .8 1.2 1.4 1.9.5.5 1.3 1.3 1.8 1.6.9.5 1.2.8 2.1 1.2.5.2 1.7.7 2.4.8.9.1 1.8.2 2.7.2.6 0 1.4-.2 1.7-.1.6.1.9-.4 1.7-.3.5 0 1.1-.3 1.6-.5.6-.2.9-.3 1.5-.8.3-.2 1-.6 1.4-.9.5-.5 1-.6 1.3-1.1s.8-.6 1.2-1.3c.2-.3 1.2-.9 1.1-1.4-.1-.6-.7-1-1.3-1-.8.1-.8.7-1 .9-.5.3-.6.5-1 .8-.6.8-1.3.9-2 1.3-.6.5-1.7.9-2.3.9-.8 0-1.6.3-2.4.3-1-.1-1.4.1-2.3-.2l-1.9-.7c-.6-.2-1-.8-1.5-1.2-.6-.5-.9-.8-1.2-1.4s-.6-.9-.9-1.8c-.2-.6-.2-1.3-.6-2-.3-.5-.2-1.4-.4-2.3-.2-.7.3-1 .6-1.4.5-.5.9-.8 1.3-.8zm-.8-5.4c.1-.4.1-.6.6-1.2.3-.4.3-.8.6-1.2s.5-.6.9-1.1c.3-.4.6-.7 1.2-.8.4-.1.9-.6 1.3-.5.7.1 1 .1 1.6-.2.3-.2 1.2.1 1.6.2.5.1.9.2 1.3.5.5.3.7.5 1 .8s.7.5.8 1c.1.4.4.9.5 1.3.2.6.3.9.5 1.3.2.6-.2 1.5-.8 1.8-.7.5-1.3 1-2 .9-.9-.2-2.4-.1-3.4 0-1.3.1-2.4.2-3.2 0s-1.4-.5-2-1c-.7-.5-.8-.9-.5-1.8z"/><path d="m291.5 302.7c-.3-2.3.1-4.4 1-6.3 1.3-2.9 3.9-5.3 5.3-6.4-.3-.2-.5-.3-.9-.4s-.6-.4-1.1-.4c-.6-.1-.8-.3-1.2-.2-.5 0-.9-.1-1.2-.1-.5-.1-1 0-1.2.1-.6.1-1 .1-1.2.2-.4.1-.7 0-1.1.4-.3.3-.7.5-1.1.5-.5 0-.6.4-1 .6s-.6.5-.9.7-.6.5-.8.8-.6.7-.7.9c-.1.3-.4.6-.7 1-.2.3-.4.5-.6 1l-.5 1.1c-.1.3-.2.8-.4 1.1s-.3.7-.3 1.1c0 .3-.2 1-.2 1.2 0 .4-.3.6-.1 1.2.1.4.1.7 0 1.1-.1.6 0 .9 0 1.2 0 .5.1.6.1 1.2.1.5.3.7.3 1.1 0 .3.3.9.3 1.2 0 .4.4.9.4 1.1l.5 1.1c.1.4.5.7.6 1 .2.5.5.7.7 1 .3.4.4.7.7.9.5.3.6.5.8.8s.7.6.9.7c.1.2.3.3.6.4.4-.8 1.1-2.1 1.6-3.1.6-1.5 1.7-4.4 1.4-7.8z"/><path d="m304.2 300.9c-.1-.3-.2-.8-.1-1.2 0-.2-.1-.7-.2-1.1 0-.3-.2-.8-.3-1.1-.1-.4-.3-.8-.4-1.1-.1-.2-.2-.7-.5-1.1-.2-.3-.5-.6-.6-1 0-.4-.5-.7-.7-1s-.4-.5-.7-.9c-.2-.3-.6-.7-.8-.8-.4-.3-.6-.5-.9-.7s-.5-.3-.8-.5c-.9 1.7-2.5 5.4-2.3 9.8.3 5.4-4.1 11.5-7.1 14 .3.1.8.4 1 .5.4.1.7.1 1.1.4.3.1.7.3 1.2.2.4-.1.7.1 1.2.1.5-.1.8.1 1.2-.1.5-.1 1-.2 1.2-.2.5-.1.6-.3 1.1-.4.4-.1.6-.4 1-.5.3-.1.7-.3 1-.6s.8-.6.9-.7c.3-.4.4-.4.8-.8.2-.2.3-.6.7-.9.2-.1.6-.7.7-1 .1-.6.4-.8.6-1.1.2-.4.2-.7.5-1.1.2-.3.1-.7.4-1.1.1-.2.3-.8.3-1.1s.2-.8.2-1.2.1-.6.1-1.1c.1-.3 0-.6 0-1.2.3-.6.4-1 .2-1.4z"/><path d="m395.1 307.7c-.8.1-.8.7-1 .9-.5.3-.6.5-1 .8-.6.8-1.3.9-2 1.3-.6.5-1.7.9-2.3.9-.8 0-1.6.3-2.4.3-1-.1-1.4.1-2.3-.2l-1.9-.7c-.6-.2-1-.8-1.5-1.2-.6-.5-.9-.8-1.2-1.4s-.6-.9-.9-1.8c-.2-.6-.2-1.3-.6-2-.3-.5-.2-1.4-.4-2.3-.2-.7.3-1 .6-1.4.5-.5.9-.8 1.3-.8.7.1 1.8.1 2.5 0 .6-.1 1.8 0 2.3 0 .6 0 1.4-.1 2.4 0 .6.1 1.5.1 2.4 0 1-.1 1.3-.1 2.4 0 .5 0 1.8-.1 2.4 0 .5 0 1.8.3 2.4-.1.7-.5-.3-1.5-.4-2.4-.1-.8-.4-1.7-.6-2.2-.2-.8-.7-1.4-.9-2.1-.3-.8-.6-1.2-1.3-2-.8-.7-1-1.2-1.6-1.6-.9-.5-1.2-.9-1.9-1.2-.9-.3-1.5-.7-2.1-.8l-2.3-.3c-1-.1-1.7.2-2.7.3-.5.1-.9.3-1.3.5-.3.1-.5.6-1.2.6-.6 0-.9.3-1.1.7-.1.3-.6.3-1 .8-.3.4-.6.7-1 1-.5.3-.8.6-.9 1-.1.6-.6.9-.8 1.1-.3.5-.5.9-.7 1.2-.5 1-.8 1.6-1.1 2.4-.3.9-.7 1.9-.6 2.6.1 1.1-.3 1.6-.2 2.6.1.8.1 1.9.2 2.6.2.9.3 1.8.6 2.4.5.9.9 1.4 1.1 2.2.1 1 .8 1.2 1.4 1.9.5.5 1.3 1.3 1.8 1.6.9.5 1.2.8 2.1 1.2.5.2 1.7.7 2.4.8.9.1 1.8.2 2.7.2.6 0 1.4-.2 1.7-.1.6.1.9-.4 1.7-.3.5 0 1.1-.3 1.6-.5.6-.2.9-.3 1.5-.8.3-.2 1-.6 1.4-.9.5-.5 1-.6 1.3-1.1s.8-.6 1.2-1.3c.2-.3 1.2-.9 1.1-1.4-.2-.6-.8-1.1-1.3-1zm-16.6-13c.1-.4.1-.6.6-1.2.3-.4.3-.8.6-1.2.3-.5.5-.6.9-1.1.3-.4.6-.7 1.2-.8.4-.1.9-.6 1.3-.5.7.1 1 .1 1.6-.2.3-.2 1.2.1 1.6.2.5.1.9.2 1.3.5.5.3.7.5 1 .8s.7.5.8 1c.1.4.4.9.5 1.3.2.6.3.9.5 1.3.2.6-.2 1.5-.8 1.8-.7.5-1.3 1-2 .9-.9-.2-2.4-.1-3.4 0-1.3.1-2.4.2-3.2 0s-1.4-.5-2-1-.7-.9-.5-1.8z"/><path d="m17.1 298.7c-.4-3.5.2-6.8 1.5-9.7 1.9-4.4 6-8.2 8.2-9.9-.5-.3-.8-.5-1.4-.6-.6-.2-1-.6-1.7-.6-.8-.1-1.2-.4-1.9-.3-.8.1-1.4-.1-1.9-.1-.7-.1-1.6.1-1.9.1-.9.2-1.5.2-1.9.3-.6.2-1.1.1-1.7.6-.4.4-1.1.7-1.6.8-.8.1-.8.7-1.5 1s-.8.7-1.4 1.1c-.5.3-1 .7-1.2 1.3-.3.5-1 1.1-1.1 1.4-.2.4-.7.9-1 1.5-.3.5-.7.8-.9 1.6l-.8 1.7c-.2.5-.3 1.3-.6 1.8s-.4 1.1-.5 1.8c-.1.4-.3 1.5-.3 1.8-.1.6-.4 1-.2 1.8.1.7.1 1-.1 1.8-.2.9.1 1.4.1 1.8 0 .8.1 1 .2 1.8s.5 1 .4 1.8c-.1.5.5 1.4.5 1.8 0 .6.6 1.4.7 1.7l.7 1.7c.2.6.7 1.1.9 1.6.3.8.8 1 1 1.5.4.6.6 1 1.1 1.4.7.5 1 .7 1.3 1.3.3.5 1.1.9 1.4 1.1.2.3.5.5.9.7.7-1.3 1.7-3.2 2.5-4.8 1.1-2.9 2.8-7.3 2.2-12.6z"/><path d="m36.8 295.9c-.2-.5-.3-1.3-.2-1.8.1-.3-.2-1-.3-1.8 0-.4-.3-1.2-.5-1.8s-.4-1.2-.6-1.8c-.2-.3-.3-1.1-.8-1.7-.3-.5-.8-1-.9-1.6s-.7-1.1-1-1.5c-.3-.5-.7-.8-1.1-1.4-.3-.4-.8-1-1.2-1.3-.6-.4-1-.8-1.4-1.1-.5-.3-.8-.5-1.2-.7-1.4 2.6-3.9 8.4-3.6 15.1.4 8.3-6.4 17.7-11 21.6.5.2 1.2.7 1.6.8.6.2 1 .2 1.8.6.4.2 1.1.5 1.8.3.7-.1 1.1.2 1.9.1s1.2.1 1.9-.1c.8-.2 1.5-.3 1.8-.3.7-.1 1-.5 1.8-.6.6-.1.8-.6 1.6-.8.5-.2 1.1-.5 1.5-1s1.2-.8 1.4-1.1c.5-.6.7-.7 1.2-1.3.3-.3.5-.8 1.1-1.4.3-.2.9-1.1 1-1.5.2-1 .7-1.2.9-1.6.3-.6.3-1 .7-1.7.3-.5.2-1.1.7-1.8.2-.3.5-1.2.5-1.8.1-.4.3-1.2.3-1.8s.1-.9.2-1.8c.1-.5.1-.9.1-1.8.1-.3.3-.9 0-1.6z"/></g></g></svg>